<?xml version="1.0" encoding="utf-8"?>
<!-- Generator: Adobe Illustrator 24.1.3, SVG Export Plug-In . SVG Version: 6.00 Build 0)  -->
<svg version="1.1" id="Layer_1" xmlns="http://www.w3.org/2000/svg" xmlns:xlink="http://www.w3.org/1999/xlink" x="0px" y="0px"
	 viewBox="0 0 48 48" style="enable-background:new 0 0 48 48;" xml:space="preserve">
<style type="text/css">
	.st0{fill:#BAAEA0;}
	.st1{fill:#3989C7;}
	.st2{fill:#7FD0FF;}
</style>
<g>
	<path class="st0" d="M33.5,41.7c0.2,0,0.5,0,0.7,0c1.2,0,1.9,0.9,1.9,2.1c0,1.2-0.9,1.9-2.1,1.9c-4.2,0-8.6,0-12.7,0
		c-2.1,0-4.2,0-6.3,0c-1.4,0-2.1-0.7-2.3-1.9c0-1.2,0.9-1.9,2.1-2.1c0.2,0,0.2,0,0.5,0c-0.2-1.6-0.9-3-1.6-4.4
		c-0.7-1.2-0.5-2.3,0.2-3.5c3-4.9,6-9.7,9-14.6c0.9-1.6,2.5-1.4,3.5,0c3,4.9,6.3,10,9.3,14.8c0.5,0.9,0.7,1.6,0.2,2.5
		c-0.7,1.4-1.4,2.5-2.1,3.9C33.8,41.3,33.5,41.5,33.5,41.7z M22.6,27.1c-0.2,0.2-0.2,0.2-0.2,0.2c-1.6,2.8-3.5,5.3-5.1,8.1
		c0,0.2,0,0.5,0,0.7c0.7,1.6,1.6,3.2,2.3,4.9c0.2,0.2,0.2,0.5,0.7,0.5c2.8,0,5.6,0,8.3,0c0.2,0,0.5-0.2,0.7-0.5
		c0.9-1.6,1.6-3.2,2.5-4.9c0.2-0.2,0.2-0.5,0-0.9c-1.6-2.5-3.2-5.3-4.9-7.9c0,0-0.2-0.2-0.2-0.5c0,1.6,0,3.2,0,4.6
		c0,1.2-0.9,2.1-1.9,2.1c-1.2,0-1.9-0.9-1.9-2.1C22.6,30.4,22.6,29,22.6,27.1z"/>
	<g>
		<path class="st1" d="M28.9,5.8v3.9c5.6,1.6,10.2,6,11.8,11.8h3.9C42.8,13.7,36.6,7.7,28.9,5.8z"/>
		<path class="st1" d="M3.6,21.3h3.9c1.6-5.8,6.3-10.2,12.3-11.8V5.8C11.7,7.4,5.5,13.5,3.6,21.3z"/>
		<path class="st2" d="M28.9,1.9h-9.3v3.9v3.9v1.2h9.3V9.8V5.8V1.9z M27.3,5.6v3.7H27h-5.6l0,0V5.6V3.5h5.8V5.6z"/>
		<path class="st2" d="M44.7,21.3h-3.9h-1.4V29H47v-7.6H44.7z M45.8,27.8H41V23h0.2h3.7h0.9V27.8z"/>
		<path class="st2" d="M0.9,21.3V29h7.6v-7.6H7.6H3.6H0.9z M7.3,22.7v4.9H2.2v-4.9h0.9H7.3L7.3,22.7z"/>
	</g>
</g>
</svg>
