<?xml version="1.0" encoding="utf-8"?>
<!-- Generator: Adobe Illustrator 24.1.0, SVG Export Plug-In . SVG Version: 6.00 Build 0)  -->
<svg version="1.1" id="Layer_1" xmlns="http://www.w3.org/2000/svg" xmlns:xlink="http://www.w3.org/1999/xlink" x="0px" y="0px"
	 viewBox="0 0 48 48" style="enable-background:new 0 0 48 48;" xml:space="preserve">
<style type="text/css">
	.st0{fill:#5FC58D;}
	.st1{fill:#67AFE6;}
	.st2{fill:#E0B049;}
</style>
<g>
	<g>
		<path class="st0" d="M33.3,28l-18.7-7.2c-0.6-0.2-0.9-1-0.7-1.6l3.8-9.9c0.2-0.6,1-0.9,1.6-0.7l18.7,7.2c0.6,0.2,0.9,1,0.7,1.6
			l-3.8,9.9C34.7,27.9,34,28.2,33.3,28z"/>
		<path class="st0" d="M26.7,9.8L22.1,8c-0.2-0.1-0.4-0.4-0.3-0.6l0.8-2.1C22.7,5.1,23,5,23.2,5.1l4.7,1.8c0.2,0.1,0.4,0.4,0.3,0.6
			l-0.8,2.1C27.2,9.8,27,9.9,26.7,9.8z"/>
		<path class="st0" d="M36.4,13.6l-4.7-1.8c-0.2-0.1-0.4-0.4-0.3-0.6l0.8-2.1c0.1-0.2,0.4-0.4,0.6-0.3l4.7,1.8
			c0.2,0.1,0.4,0.4,0.3,0.6l-0.8,2.1C37,13.6,36.7,13.7,36.4,13.6z"/>
	</g>
	<g>
		<path class="st1" d="M22.4,42.3H2.3c-0.7,0-1.2-0.5-1.2-1.2V30.4c0-0.7,0.5-1.2,1.2-1.2h20.1c0.7,0,1.2,0.5,1.2,1.2V41
			C23.6,41.7,23.1,42.3,22.4,42.3z"/>
		<path class="st1" d="M9.7,27.7h-5c-0.3,0-0.5-0.2-0.5-0.5v-2.2c0-0.3,0.2-0.5,0.5-0.5h5c0.3,0,0.5,0.2,0.5,0.5v2.2
			C10.1,27.5,9.9,27.7,9.7,27.7z"/>
		<path class="st1" d="M20.1,27.7h-5c-0.3,0-0.5-0.2-0.5-0.5v-2.2c0-0.3,0.2-0.5,0.5-0.5h5c0.3,0,0.5,0.2,0.5,0.5v2.2
			C20.6,27.5,20.4,27.7,20.1,27.7z"/>
	</g>
	<g>
		<path class="st2" d="M45.9,42.3H25.8c-0.7,0-1.2-0.5-1.2-1.2V30.4c0-0.7,0.5-1.2,1.2-1.2h20.1c0.7,0,1.2,0.5,1.2,1.2V41
			C47.1,41.7,46.5,42.3,45.9,42.3z"/>
		<path class="st2" d="M43.6,27.7h-5c-0.3,0-0.5-0.2-0.5-0.5v-2.2c0-0.3,0.2-0.5,0.5-0.5h5c0.3,0,0.5,0.2,0.5,0.5v2.2
			C44.1,27.5,43.8,27.7,43.6,27.7z"/>
	</g>
</g>
</svg>
