<?xml version="1.0" encoding="utf-8"?>
<!-- Generator: Adobe Illustrator 24.1.0, SVG Export Plug-In . SVG Version: 6.00 Build 0)  -->
<svg version="1.1" id="Layer_1" xmlns="http://www.w3.org/2000/svg" xmlns:xlink="http://www.w3.org/1999/xlink" x="0px" y="0px"
	 viewBox="0 0 48 48" style="enable-background:new 0 0 48 48;" xml:space="preserve">
<style type="text/css">
	.st0{fill:#F26A8D;}
	.st1{fill:#E5658A;}
</style>
<g id="maps">
	<path class="st0" d="M25,1.2c-8.2,0-14.9,6.7-14.9,14.9s12,29.4,14.9,29.4c3.3,0,14.9-21.2,14.9-29.4S33.3,1.2,25,1.2z M25,23.4
		c-4.1,0-7.5-3.3-7.5-7.5c0-4.1,3.3-7.5,7.5-7.5c4.1,0,7.5,3.3,7.5,7.5C32.5,20,29.2,23.4,25,23.4z"/>
	<path class="st1" d="M32.5,15.9c0,4.1-3.3,7.5-7.5,7.5v22.2c3.3,0,14.9-21.2,14.9-29.4S33.2,1.3,25,1.3v7.2
		C29.2,8.5,32.5,11.8,32.5,15.9L32.5,15.9z"/>
</g>
</svg>
