<?xml version="1.0" encoding="utf-8"?>
<!-- Generator: Adobe Illustrator 24.1.3, SVG Export Plug-In . SVG Version: 6.00 Build 0)  -->
<svg version="1.1" id="Layer_1" xmlns="http://www.w3.org/2000/svg" xmlns:xlink="http://www.w3.org/1999/xlink" x="0px" y="0px"
	 viewBox="0 0 48 48" style="enable-background:new 0 0 48 48;" xml:space="preserve">
<style type="text/css">
	.st0{fill:#7A8785;}
	.st1{fill:#99D19C;}
	.st2{fill:#EDB458;}
</style>
<g id="background">
	<path class="st0" d="M0.8,0.6c0,15.3,0,30.8,0,46.3c15.3,0,30.8,0,46.3,0c0-15.5,0-31,0-46.3C31.6,0.6,16.1,0.6,0.8,0.6z M3.2,44.4
		c0-1.9,0-3.9,0-5.8c0-0.2,0.2-0.7,0.5-0.9c2.3-2.3,4.6-4.6,6.7-6.7c0.9-1.2,1.9-2.1,2.8-3c5.6,5.6,11.1,11.1,16.7,16.7
		C21.2,44.4,12.4,44.4,3.2,44.4z M44.4,44.4c-0.2,0-0.2,0-0.5,0c-3.2,0-6.2,0-9.5,0c-0.2,0-0.5-0.2-0.7-0.5
		C28.1,38.3,22.6,32.8,16.8,27c-1.2-1.2-2.3-2.3-3.5-3.5c-3.5,3.7-6.7,6.9-10.2,10.2c0-10.2,0-20.4,0-30.6c13.7,0,27.5,0,41.4,0
		C44.6,16.8,44.6,30.5,44.4,44.4z"/>
	<path class="st0" d="M30,5.5c-4.4,0.2-7.6,3.5-7.6,7.9S25.6,21,30,21s7.9-3,7.9-7.6C37.9,9,34.4,5.5,30,5.5z"/>
</g>
<path class="st1" d="M3.2,44.4c0-1.9,0-3.9,0-5.8c0-0.2,0.2-0.7,0.5-0.9c2.3-2.3,4.6-4.6,6.7-6.7c0.9-1.2,1.9-2.1,2.8-3
	c5.6,5.6,11.1,11.1,16.7,16.7C21.2,44.4,12.4,44.4,3.2,44.4z"/>
<path class="st2" d="M30,18.7c-2.8,0-5.1-2.3-5.1-5.1s2.3-5.1,5.1-5.1c2.8,0,5.1,2.3,5.1,5.1C35.3,16.4,32.8,18.7,30,18.7z"/>
</svg>
