<?xml version="1.0" encoding="utf-8"?>
<!-- Generator: Adobe Illustrator 24.1.0, SVG Export Plug-In . SVG Version: 6.00 Build 0)  -->
<svg version="1.1" id="Layer_1" xmlns="http://www.w3.org/2000/svg" xmlns:xlink="http://www.w3.org/1999/xlink" x="0px" y="0px"
	 viewBox="0 0 48 48" style="enable-background:new 0 0 48 48;" xml:space="preserve">
<style type="text/css">
	.st0{fill:#17BEBB;}
	.st1{fill:#3989C7;}
	.st2{fill:#EDB458;}
	.st3{fill:#FFFFFF;}
</style>
<g id="infoart">
	<polygon class="st0" points="19.4,10.3 16.8,6.7 14.2,3.3 14.2,3.3 14.2,3.3 14.2,3.2 14.2,3.3 1.8,3.3 1.8,44.6 14.2,44.6 
		14.2,17.3 16.8,13.9 	"/>
	<polygon class="st1" points="30.6,6.7 28,3.3 28,3.3 28,3.3 28,3.2 28,3.3 16.4,3.3 16.4,3.3 18.9,6.7 21.5,10.3 18.9,13.9 
		16.4,17.3 16.4,44.6 28,44.6 28,17.3 30.6,13.9 33.2,10.3 	"/>
	<polygon class="st2" points="44.3,6.7 41.8,3.3 41.8,3.3 41.8,3.3 41.7,3.2 41.7,3.3 30.1,3.3 30.1,3.3 32.6,6.7 35.2,10.3 
		32.6,13.9 30.1,17.3 30.1,44.6 41.8,44.6 41.8,17.3 44.3,13.9 46.9,10.3 	"/>
	<g>
		<path class="st3" d="M7.5,31.7h2.2v11.2H7.1v-7.1H5.3v-1.9h0.4c0.5,0,1-0.1,1.3-0.4c0.3-0.3,0.4-0.7,0.4-1.3L7.5,31.7L7.5,31.7z"
			/>
	</g>
	<g>
		<path class="st3" d="M19.3,32.1c1-0.4,1.9-0.6,2.8-0.6c1.1,0,1.9,0.3,2.6,0.9c0.6,0.6,1,1.3,1,2.2c0,0.7-0.2,1.3-0.5,1.8
			c-0.4,0.5-1,1.2-2.1,2c-0.7,0.6-1.2,1-1.4,1.3c-0.2,0.3-0.3,0.6-0.3,1h4.4v2.1h-7v-1.3c0-1.1,0.2-1.9,0.5-2.5s1.1-1.4,2.2-2.4
			c0.5-0.5,0.9-0.8,1.1-1s0.2-0.5,0.2-0.7c0-0.3-0.1-0.6-0.4-0.8s-0.6-0.3-1-0.3c-0.6,0-1.3,0.3-2.1,0.9
			C19.3,34.7,19.3,32.1,19.3,32.1z"/>
	</g>
	<g>
		<path class="st3" d="M32.9,31.9c0.9-0.4,1.8-0.7,2.7-0.7c0.6,0,1.1,0.1,1.6,0.3c0.5,0.2,1,0.5,1.3,1c0.3,0.4,0.5,0.9,0.5,1.5
			s-0.2,1.1-0.5,1.5s-0.8,0.8-1.4,1.1c0.8,0.1,1.4,0.4,1.8,0.9c0.4,0.4,0.6,1,0.6,1.8c0,1-0.4,1.9-1.1,2.5c-0.7,0.7-1.7,1-2.9,1
			c-0.8,0-1.7-0.2-2.7-0.6v-2.5c0.8,0.6,1.5,0.8,2.3,0.8c0.5,0,0.9-0.1,1.2-0.4c0.3-0.3,0.5-0.7,0.5-1.1c0-0.4-0.2-0.7-0.5-1
			s-0.7-0.4-1.2-0.4H34v-2h0.8c0.4,0,0.8-0.1,1.1-0.3s0.4-0.5,0.4-0.9c0-0.3-0.1-0.6-0.4-0.8c-0.3-0.2-0.6-0.3-1-0.3
			c-0.6,0-1.3,0.3-2,0.9C32.9,34.2,32.9,31.9,32.9,31.9z"/>
	</g>
</g>
</svg>
