<?xml version="1.0" encoding="utf-8"?>
<!-- Generator: Adobe Illustrator 24.1.0, SVG Export Plug-In . SVG Version: 6.00 Build 0)  -->
<svg version="1.1" id="Layer_1" xmlns="http://www.w3.org/2000/svg" xmlns:xlink="http://www.w3.org/1999/xlink" x="0px" y="0px"
	 viewBox="0 0 48 48" style="enable-background:new 0 0 48 48;" xml:space="preserve">
<style type="text/css">
	.st0{fill:#BAAEA0;}
</style>
<g id="layout">
	<path class="st0" d="M46.8,24.2c0,5.5,0,11,0,16.4c0,3.3-2.2,5.9-5.2,6.4c-0.4,0.1-0.9,0.1-1.3,0.1c-10.9,0-21.8,0-32.8,0
		c-3.3,0-6-2.3-6.4-5.3C1,41.4,1,41,1,40.7c0-11,0-22,0-33c0-3,1.8-5.4,4.6-6.2c0.6-0.2,1.2-0.2,1.8-0.2c11,0,22,0,32.9,0
		c3.7,0,6.4,2.7,6.4,6.4C46.8,13.2,46.8,18.7,46.8,24.2z M19.7,42.9c0.2,0,0.4,0,0.6,0c6.6,0,13.2,0,19.8,0c1.6,0,2.5-0.8,2.5-2.5
		c0-7.3,0-14.6,0-21.9c0-0.2,0-0.4,0-0.6c-7.7,0-15.3,0-22.9,0C19.7,26.3,19.7,34.5,19.7,42.9z M42.6,13.7c0-0.2,0-0.4,0-0.6
		c0-1.8,0-3.6,0-5.3c0-1.6-0.9-2.4-2.4-2.4c-10.9,0-21.8,0-32.7,0C6,5.4,5.1,6.2,5.1,7.8c0,1.8,0,3.6,0,5.3c0,0.2,0,0.4,0,0.6
		C17.7,13.7,30.1,13.7,42.6,13.7z M5.1,17.9c0,0.2,0,0.4,0,0.6c0,7.3,0,14.6,0,21.9c0,1.6,0.8,2.5,2.5,2.5c2.4,0,4.8,0,7.3,0
		c0.2,0,0.4,0,0.6,0c0-8.4,0-16.7,0-25C12,17.9,8.6,17.9,5.1,17.9z"/>
</g>
</svg>
