<?xml version="1.0" encoding="utf-8"?>
<!-- Generator: Adobe Illustrator 24.1.0, SVG Export Plug-In . SVG Version: 6.00 Build 0)  -->
<svg version="1.1" id="Layer_1" xmlns="http://www.w3.org/2000/svg" xmlns:xlink="http://www.w3.org/1999/xlink" x="0px" y="0px"
	 viewBox="0 0 48 48" style="enable-background:new 0 0 48 48;" xml:space="preserve">
<style type="text/css">
	.st0{fill:#5FC58D;}
	.st1{fill:#67AFE6;}
</style>
<g id="quote">
	<path class="st0" d="M3.1,43c0.7-1.6,1.4-3.1,2-4.6c0.7-1.9,1.3-3.9,1.5-5.9c0-0.5-0.1-0.9-0.4-1.4c-2.5-3.3-3.5-7-3.1-11.1
		c0.4-4,2.2-7.4,5.2-10.1C13,5.6,18.6,3.8,25,3.9C30.4,4,35.2,5.8,39.4,9.3c3.2,2.7,5.3,6.1,5.8,10.3c0.5,4.1-0.4,7.8-2.8,11.1
		c-3.4,4.8-8.2,7.4-13.9,8.4c-3.6,0.6-7.2,0.3-10.8-0.4c-0.2-0.1-0.5-0.1-0.7,0c-3.4,1.8-7,2.8-10.7,3.7C5.2,42.6,4.2,42.8,3.1,43z
		 M9.8,37.4c0.1,0,0.2-0.1,0.4-0.1c2.2-0.7,4.3-1.6,6.4-2.8c0.3-0.2,0.7-0.2,1-0.1c4,1,8,1.3,12.1,0.2c4.7-1.2,8.4-3.7,10.5-8.2
		c1.5-3.3,1.4-6.6-0.2-9.8c-1.8-3.5-4.8-5.8-8.4-7.2C27.7,7.9,23.9,7.6,20,8.5c-4.5,1-8.4,3-10.9,7C7,18.7,6.6,22.2,8,25.9
		c0.6,1.7,1.8,3.1,3,4.4c0.2,0.3,0.4,0.5,0.3,0.8C10.7,33.2,10.3,35.3,9.8,37.4z"/>
	<path class="st1" d="M15.6,23.7c0-0.2,0-0.3,0-0.4c0-2.2,0-4.4,0-6.6c2.5,0,4.9,0,7.4,0c0,0.7,0,1.3,0,2c-0.1,1.7,0.2,3.3-0.3,5
		c-0.9,3-2.9,4.6-5.8,5.4c-0.3,0.1-0.5,0.1-0.6-0.3S16,28,15.8,27.6c1.6-0.8,2.8-1.9,2.9-3.9C17.6,23.7,16.7,23.7,15.6,23.7z"/>
	<path class="st1" d="M25.9,23.7c0-2.4,0-4.7,0-7c2.4,0,4.8,0,7.2,0l0.1,0.1c0,2.3,0.3,4.6-0.3,6.9c-0.7,2.9-3.1,4.8-5.9,5.4
		c-0.1,0-0.4-0.1-0.5-0.3c-0.2-0.4-0.4-0.8-0.6-1.2c1.6-0.7,2.7-1.9,2.9-3.9C27.9,23.7,26.9,23.7,25.9,23.7z"/>
</g>
</svg>
