<?xml version="1.0" encoding="utf-8"?>
<!-- Generator: Adobe Illustrator 24.1.0, SVG Export Plug-In . SVG Version: 6.00 Build 0)  -->
<svg version="1.1" id="Layer_1" xmlns="http://www.w3.org/2000/svg" xmlns:xlink="http://www.w3.org/1999/xlink" x="0px" y="0px"
	 viewBox="0 0 48 48" style="enable-background:new 0 0 48 48;" xml:space="preserve">
<style type="text/css">
	.st0{fill:#7A8785;}
</style>
<g id="text">
	<g>
		<path class="st0" d="M7.4,5.5h32.9l0.3,9.9h-1.4c-0.7-3.1-1.6-5.1-2.6-6.1c-1.1-0.9-3.3-1.4-6.6-1.4h-3.2v29.8
			c0,2.2,0.4,3.6,1.1,4.2c0.7,0.5,2.2,0.9,4.6,1.1v1h-17v-1.1c2.5-0.2,4-0.6,4.6-1.2c0.6-0.6,0.9-2.2,0.9-4.7V7.9h-3.3
			c-3.2,0-5.4,0.5-6.6,1.4c-1.2,0.9-2,3-2.6,6.1H7L7.4,5.5z"/>
	</g>
</g>
</svg>
